<?xml version="1.0" encoding="utf-8"?>
<?xml-stylesheet type="text/xsl" href="rss1.xsl"?>
<rss version="2.0" xmlns:atom="http://www.w3.org/2005/Atom" xmlns:content="http://purl.org/rss/1.0/modules/content/" xmlns:dc="http://purl.org/dc/elements/1.1/" xmlns:media="http://search.yahoo.com/mrss/">
<channel>
 <title>Getty</title>
 <link>http://www.gettyimg.com/</link>
 <atom:link href="http://www.gettyimg.com/" rel="self" type="application/rss+xml" />

 
                <item>
                <title><![CDATA[【Apple Music】WEB-RiP - Ashnikko - Halloweenie V - The Moss King (Visualiser Video) 2160p AM WEB-DL AAC2.0 H.265]]></title>
                <link><![CDATA[https://sharemania.us/threads/ashnikko-halloweenie-v-the-moss-king-visualiser-video-2160p-am-web-dl-aac2-0-h-265.232526/]]></link>
                <description><![CDATA[<article>
<blockquote class="messageText SelectQuoteContainer ugc baseHtml">
<div style="text-align: center"><img src="https://i.imgur.com/p8XGpTc.jpg" class="bbCodeImage LbImage" alt="[​IMG]" data-url="https://i.imgur.com/p8XGpTc.jpg" style=""> <br>
<div class="ToggleTriggerAnchor bbCodeSpoilerContainer">
<button type="button" class="button bbCodeSpoilerButton ToggleTrigger Tooltip JsOnly" data-target="> .SpoilerTarget"><span>Spoiler</span></button>
<div class="SpoilerTarget bbCodeSpoilerText">General<br>
Complete name : C:\Users\BR8NG0R\Downloads\Gamdl\Apple Music\Ashnikko\Halloweenie V_ The Moss King (Visualiser Video).m4v<br>
Format : MPEG-4<br>
Codec ID : M4V (isom/iso4/M4V /mp42)<br>
File size : 192 MiB<br>
Duration : 2 min 13 s<br>
Overall bit rate mode : Variable<br>
Overall bit rate : 12.0 Mb/s<br>
Frame rate : 23.976 FPS<br>
Movie name : Halloweenie V: The Moss King (Visualiser Video)<br>
Performer : Ashnikko<br>
Genre : Pop<br>
ContentType : Music Video<br>
Recorded date : 2023-10-27 07:00:00 UTC<br>
Encoded date : 2023-10-28 19:23:13 UTC<br>
Tagged date : 2023-10-28 19:23:13 UTC<br>
Copyright : ℗ © 2023 Parlophone Records Limited.<br>
Cover : Yes<br>
Rating : None<br>
GenreID : 1614<br>
AppleStoreCountry : Brazil<br>
AlbumTitleID : 721130075<br>
AppleStoreCatalogID : 1713920181<br>
Video<br>
ID : 2<br>
Format : HEVC<br>
Format/Info : High Efficiency Video Coding<br>
Format profile : Main 10@L5@High<br>
Codec ID : hvc1<br>
Codec ID/Info : High Efficiency Video Coding<br>
Duration : 2 min 13 s<br>
Bit rate : 11.7 Mb/s<br>
Maximum bit rate : 17.5 Mb/s<br>
Width : 3 840 pixels<br>
Height : 2 160 pixels<br>
Display aspect ratio : 16:9<br>
Frame rate mode : Constant<br>
Frame rate : 23.976 (24000/1001) FPS<br>
Color space : YUV<br>
Chroma subsampling : 4:2:0<br>
Bit depth : 10 bits<br>
Scan type : Progressive<br>
Bits/(Pixel*Frame) : 0.059<br>
Stream size : 187 MiB (98%)<br>
Title : Core Media Video<br>
Encoded date : 2023-10-27 13:03:46 UTC<br>
Tagged date : 2023-10-28 19:23:13 UTC<br>
Color range : Limited<br>
Color primaries : BT.709<br>
Transfer characteristics : BT.709<br>
Matrix coefficients : BT.709<br>
Codec configuration box : hvcC<br>
Audio<br>
ID : 1<br>
Format : AAC LC<br>
Format/Info : Advanced Audio Codec Low Complexity<br>
Codec ID : mp4a-40-2<br>
Duration : 2 min 13 s<br>
Duration_LastFrame : -1 ms<br>
Bit rate mode : Variable<br>
Bit rate : 265 kb/s<br>
Maximum bit rate : 345 kb/s<br>
Channel(s) : 2 channels<br>
Channel layout : L R<br>
Sampling rate : 48.0 kHz<br>
Frame rate : 46.875 FPS (1024 SPF)<br>
Compression mode : Lossy<br>
Stream size : 4.20 MiB (2%)<br>
Title : Core Media Audio<br>
Encoded date : 2023-10-27 12:59:13 UTC<br>
Tagged date : 2023-10-28 19:23:13 UTC</div>
</div>
<div class="bbCodeBlock bbCodeVfcHH HiddenContent">
<div class="attribution type">Hidden Content:</div>
<blockquote>You must reply before you can see the hidden data contained here.</blockquote>
</div></div>
<div class="messageTextEndMarker">&nbsp;</div>
</blockquote>
</article>]]></description>
                <author><![CDATA[Brungor]]></author>
                </item>

                
                <item>
                <title><![CDATA[【Apple Music】WEB-RiP - Stromae - La solassitude (NMA Live Performance) 1080p AM WEB-DL AAC2.0 H.264]]></title>
                <link><![CDATA[https://sharemania.us/threads/stromae-la-solassitude-nma-live-performance-1080p-am-web-dl-aac2-0-h-264.232527/]]></link>
                <description><![CDATA[<article>
<blockquote class="messageText SelectQuoteContainer ugc baseHtml">
<div style="text-align: center"><img src="https://i.imgur.com/1GWIkoX.jpg" class="bbCodeImage LbImage" alt="[​IMG]" data-url="https://i.imgur.com/1GWIkoX.jpg" style=""> <br>
<div style="text-align: center">​</div>
<div class="ToggleTriggerAnchor bbCodeSpoilerContainer">
<button type="button" class="button bbCodeSpoilerButton ToggleTrigger Tooltip JsOnly" data-target="> .SpoilerTarget"><span>Spoiler</span></button>
<div class="SpoilerTarget bbCodeSpoilerText">General<br>
Complete name : C:\Users\Downloads\Apple Music\Stromae\La solassitude (NMA Live Performance).m4v<br>
Format : MPEG-4<br>
Codec ID : M4V (isom/iso4/M4V /mp42)<br>
File size : 157 MiB<br>
Duration : 3 min 10 s<br>
Overall bit rate mode : Variable<br>
Overall bit rate : 6 937 kb/s<br>
Frame rate : 23.976 FPS<br>
Movie name : La solassitude (NMA Live Performance)<br>
Performer : Stromae<br>
Genre : Pop<br>
ContentType : Music Video<br>
Recorded date : 2022-11-22 08:00:00 UTC<br>
Encoded date : 2023-10-01 20:18:02 UTC<br>
Tagged date : 2023-10-01 20:18:02 UTC<br>
Copyright : ℗ 2022 Mosaert Label<br>
Cover : Yes<br>
Rating : None<br>
GenreID : 1614<br>
AppleStoreCountry : Brazil<br>
AlbumTitleID : 270954369<br>
AppleStoreCatalogID : 1655334693<br>
Video<br>
ID : 2<br>
Format : AVC<br>
Format/Info : Advanced Video Codec<br>
Format profile : High@L4<br>
Format settings : CABAC / 4 Ref Frames<br>
Format settings, CABAC : Yes<br>
Format settings, Reference fra : 4 frames<br>
Codec ID : avc1<br>
Codec ID/Info : Advanced Video Coding<br>
Duration : 3 min 10 s<br>
Bit rate : 6 662 kb/s<br>
Maximum bit rate : 18.0 Mb/s<br>
Width : 1 920 pixels<br>
Height : 1 080 pixels<br>
Display aspect ratio : 16:9<br>
Frame rate mode : Constant<br>
Frame rate : 23.976 (24000/1001) FPS<br>
Color space : YUV<br>
Chroma subsampling : 4:2:0<br>
Bit depth : 8 bits<br>
Scan type : Progressive<br>
Bits/(Pixel*Frame) : 0.134<br>
Stream size : 151 MiB (96%)<br>
Title : Core Media Video<br>
Encoded date : 2022-11-18 13:02:53 UTC<br>
Tagged date : 2023-10-01 20:18:03 UTC<br>
Color range : Limited<br>
Color primaries : BT.709<br>
Transfer characteristics : BT.709<br>
Matrix coefficients : BT.709<br>
Codec configuration box : avcC<br>
Audio<br>
ID : 1<br>
Format : AAC LC<br>
Format/Info : Advanced Audio Codec Low Complexity<br>
Codec ID : mp4a-40-2<br>
Duration : 3 min 10 s<br>
Bit rate mode : Variable<br>
Bit rate : 265 kb/s<br>
Maximum bit rate : 319 kb/s<br>
Channel(s) : 2 channels<br>
Channel layout : L R<br>
Sampling rate : 48.0 kHz<br>
Frame rate : 46.875 FPS (1024 SPF)<br>
Compression mode : Lossy<br>
Stream size : 5.96 MiB (4%)<br>
Title : Core Media Audio<br>
Encoded date : 2022-11-18 13:01:06 UTC<br>
Tagged date : 2023-10-01 20:18:03 UTC</div>
</div>
<div class="bbCodeBlock bbCodeVfcHH HiddenContent">
<div class="attribution type">Hidden Content:</div>
<blockquote>You must reply before you can see the hidden data contained here.</blockquote>
</div></div>
<div class="messageTextEndMarker">&nbsp;</div>
</blockquote>
</article>]]></description>
                <author><![CDATA[Brungor]]></author>
                </item>

                
                <item>
                <title><![CDATA[【Singles (lossless)】FLAC - Luísa Sonza, Tokischa - La Muerte (2023 Qobuz FLAC 24bits 48.0kHz]]]></title>
                <link><![CDATA[https://sharemania.us/threads/lu%C3%ADsa-sonza-tokischa-la-muerte-2023-qobuz-flac-24bits-48-0khz.232525/]]></link>
                <description><![CDATA[<article>
<blockquote class="messageText SelectQuoteContainer ugc baseHtml">
<div style="text-align: center"><img src="https://i.imgur.com/ejzrm9s.jpg" class="bbCodeImage LbImage" alt="[​IMG]" data-url="https://i.imgur.com/ejzrm9s.jpg" style=""> <br>
<div style="text-align: center">​</div>
<div class="ToggleTriggerAnchor bbCodeSpoilerContainer">
<button type="button" class="button bbCodeSpoilerButton ToggleTrigger Tooltip JsOnly" data-target="> .SpoilerTarget"><span>Spoiler: <span class="SpoilerTitle">01 - La Muerte</span></span></button>
<div class="SpoilerTarget bbCodeSpoilerText">General<br>
Complete name : C:\Users\Downloads\Qobuz Downloader\Luísa Sonza\La Muerte\FLAC (24bit-48kHz)\01 - La Muerte.flac<br>
Format : FLAC<br>
Format/Info : Free Lossless Audio Codec<br>
File size : 34.4 MiB<br>
Duration : 2 min 35 s<br>
Overall bit rate mode : Variable<br>
Overall bit rate : 1 857 kb/s<br>
Album : La Muerte<br>
Album/Performer : Luísa Sonza<br>
Part : 1<br>
Part/Total : 1<br>
Track name : La Muerte<br>
Track name/Position : 1<br>
Track name/Total : 1<br>
Performer : Luísa Sonza<br>
Composer : Luísa Sonza<br>
Genre : Pop<br>
Recorded date : 2023-11-14<br>
ISRC : BRSME2301253<br>
Copyright : (P) 2023 Sony Music Entertainment Brasil ltda. | Luísa Sonza &amp; Cia.<br>
Cover : Yes<br>
Cover type : Cover (front)<br>
Cover MIME : image/jpeg<br>
UPC : 0196871620116<br>
MEDIATYPE : single<br>
ITUNESADVISORY : 1<br>
Audio<br>
Format : FLAC<br>
Format/Info : Free Lossless Audio Codec<br>
Duration : 2 min 35 s<br>
Bit rate mode : Variable<br>
Bit rate : 1 838 kb/s<br>
Channel(s) : 2 channels<br>
Channel layout : L R<br>
Sampling rate : 48.0 kHz<br>
Bit depth : 24 bits<br>
Compression mode : Lossless<br>
Stream size : 34.1 MiB (99%)<br>
MD5 of the unencoded content : 00000000000000000000000000000000</div>
</div>
<div class="bbCodeBlock bbCodeVfcHH HiddenContent">
<div class="attribution type">Hidden Content:</div>
<blockquote>You must reply before you can see the hidden data contained here.</blockquote>
</div></div>
<div class="messageTextEndMarker">&nbsp;</div>
</blockquote>
</article>]]></description>
                <author><![CDATA[Brungor]]></author>
                </item>

                </channel></rss>